<?xml version="1.0" encoding="iso-8859-1"?>
<!-- Generator: Adobe Illustrator 19.1.0, SVG Export Plug-In . SVG Version: 6.00 Build 0)  -->
<svg version="1.1" id="Capa_1" xmlns="http://www.w3.org/2000/svg" xmlns:xlink="http://www.w3.org/1999/xlink" x="0px" y="0px"
	 viewBox="0 0 304.735 304.735" style="enable-background:new 0 0 304.735 304.735;" xml:space="preserve">
<g>
	<path d="M79.378,167.342l55.547,55.547c1.157,1.17,2.436,2.224,3.792,3.123c0.514,0.341,1.048,0.63,1.594,0.906l0.585,0.321
		c0.668,0.379,1.337,0.733,2.082,1.054c0.662,0.27,1.356,0.482,2.05,0.668l0.835,0.251c0.54,0.174,1.08,0.334,1.69,0.463
		c3.181,0.63,6.427,0.643,9.698-0.013c0.54-0.116,1.048-0.264,1.562-0.424l0.726-0.225c0.771-0.193,1.523-0.431,2.275-0.733
		c0.636-0.264,1.228-0.598,1.819-0.925l0.701-0.379c0.578-0.289,1.144-0.604,1.703-0.964c1.157-0.778,2.249-1.639,3.226-2.571
		l56.106-56.1c9.274-9.293,9.274-25.495-0.013-34.782c-9.589-9.582-25.206-9.582-34.782,0l-13.606,13.599V32.494
		c0-13.554-11.035-24.595-24.596-24.595s-24.595,11.041-24.595,24.595v113.671l-13.606-13.606
		c-4.647-4.647-10.823-7.204-17.391-7.204c-6.562,0-12.738,2.558-17.391,7.204c-4.653,4.653-7.204,10.836-7.204,17.397
		C72.173,156.538,74.731,162.708,79.378,167.342z M105.079,141.647l35.547,35.547v-144.7c0-6.478,5.264-11.742,11.742-11.742
		c6.478,0,11.748,5.264,11.748,11.742h0.013v144.7l35.54-35.547c4.582-4.576,12.025-4.576,16.607,0
		c4.428,4.428,4.428,12.172,0.013,16.601l-55.624,55.631c-0.54,0.54-1.138,1.015-2.121,1.62l-1.677,0.906
		c-0.244,0.109-0.495,0.154-1.247,0.373l-0.913,0.289c-1.549,0.315-3.111,0.315-4.839-0.071l-1.967-0.591
		c-0.231-0.09-0.437-0.225-1.144-0.63l-0.9-0.45c-0.662-0.437-1.26-0.938-1.832-1.497l-55.566-55.566
		c-4.422-4.415-4.428-12.16,0.006-16.601C93.048,137.072,100.496,137.072,105.079,141.647z M304.735,296.836H0v-0.006V143.132
		c0-3.56,2.873-6.427,6.427-6.427s6.427,2.866,6.427,6.427v140.851h279.027v-141.39c0-3.56,2.873-6.427,6.427-6.427
		s6.427,2.866,6.427,6.427V296.836z"/>
</g>
<g>
</g>
<g>
</g>
<g>
</g>
<g>
</g>
<g>
</g>
<g>
</g>
<g>
</g>
<g>
</g>
<g>
</g>
<g>
</g>
<g>
</g>
<g>
</g>
<g>
</g>
<g>
</g>
<g>
</g>
</svg>
