<?xml version="1.0" encoding="iso-8859-1"?>
<!-- Generator: Adobe Illustrator 19.1.0, SVG Export Plug-In . SVG Version: 6.00 Build 0)  -->
<svg version="1.1" id="Capa_1" xmlns="http://www.w3.org/2000/svg" xmlns:xlink="http://www.w3.org/1999/xlink" x="0px" y="0px"
	 viewBox="0 0 304.748 304.748" style="enable-background:new 0 0 304.748 304.748;" xml:space="preserve">
<g>
	<path d="M127.778,91.877v113.678c0,13.554,11.035,24.595,24.595,24.595c13.567,0,24.602-11.041,24.602-24.595V91.877l13.606,13.599
		c9.576,9.582,25.193,9.582,34.782,0c9.287-9.287,9.287-25.495,0-34.782l-55.592-55.605l-0.752-0.746l-0.077-0.045
		c-0.906-0.81-1.883-1.575-2.924-2.275c-0.553-0.353-1.105-0.662-1.684-0.945l-0.701-0.379c-0.591-0.334-1.183-0.656-1.819-0.919
		c-0.752-0.315-1.504-0.54-2.275-0.746l-0.726-0.219c-0.514-0.161-1.015-0.315-1.62-0.443c-3.213-0.636-6.453-0.63-9.685,0.013
		c-0.559,0.122-1.099,0.283-1.639,0.456l-0.835,0.244c-0.694,0.193-1.395,0.398-2.082,0.688c-0.713,0.302-1.382,0.662-2.05,1.035
		l-0.585,0.328c-0.546,0.27-1.08,0.559-1.575,0.893c-1.375,0.913-2.654,1.967-3.792,3.111L79.391,70.7
		c-4.659,4.64-7.211,10.816-7.211,17.391c0,6.568,2.551,12.744,7.211,17.397c4.653,4.647,10.829,7.204,17.391,7.204
		c6.568,0,12.744-2.558,17.391-7.204L127.778,91.877z M88.485,96.395c-4.435-4.441-4.435-12.185,0-16.607l55.573-55.579
		c0.553-0.553,1.15-1.041,2.031-1.594l1.163-0.623c0.219-0.122,0.418-0.264,1.221-0.521l1.587-0.495
		c1.523-0.302,3.085-0.302,4.743,0.064l1.305,0.392c0.264,0.064,0.514,0.116,1.208,0.469l1.568,0.829
		c0.643,0.424,1.228,0.906,1.767,1.446l0.739,0.733l0.013,0.006l54.879,54.879c4.422,4.428,4.422,12.179,0,16.607
		c-4.582,4.576-12.037,4.576-16.62,0l-35.534-35.54v144.694c0,6.478-5.27,11.742-11.755,11.742c-6.478,0-11.742-5.264-11.742-11.742
		V60.842l-35.547,35.547C100.509,100.964,93.073,100.964,88.485,96.395z M304.748,296.848H0V143.144c0-3.56,2.873-6.427,6.427-6.427
		s6.427,2.866,6.427,6.427v140.857h279.034V142.61c0-3.56,2.873-6.427,6.427-6.427s6.427,2.866,6.427,6.427v154.238H304.748z"/>
</g>
<g>
</g>
<g>
</g>
<g>
</g>
<g>
</g>
<g>
</g>
<g>
</g>
<g>
</g>
<g>
</g>
<g>
</g>
<g>
</g>
<g>
</g>
<g>
</g>
<g>
</g>
<g>
</g>
<g>
</g>
</svg>
