<?xml version="1.0" ?>
<!DOCTYPE svg  PUBLIC '-//W3C//DTD SVG 1.1//EN'  'http://www.w3.org/Graphics/SVG/1.1/DTD/svg11.dtd'>
<svg xmlns="http://www.w3.org/2000/svg" xmlns:xlink="http://www.w3.org/1999/xlink" id="Layer_1" width="500px" height="500px" enable-background="new 0 0 500 500" version="1.1" viewBox="0 0 500 500" xml:space="preserve">
    <path fill-rule="evenodd" d="M31.949,413.539c0,20.079,16.264,36.341,36.34,36.341h327.077  c20.078,0,36.345-16.262,36.345-36.341v-54.513h16.35c11.084,0,19.99-8.906,19.99-19.991v-96.302c0-11.08-8.906-19.989-19.99-19.989  h-16.35v-54.513c0-20.079-16.267-36.342-36.345-36.342H95.548c-9.992,0-18.173-8.181-18.173-18.17c0-9.992,8.181-18.17,18.173-18.17  h268.021c12.535,0,22.715-10.179,22.715-22.716c0-12.536-10.18-22.713-22.715-22.713H68.29c-20.077,0-36.34,16.264-36.34,36.343  V413.539z M340.853,290.884c0-12.535,10.18-22.711,22.717-22.711c12.535,0,22.715,10.176,22.715,22.711  c0,12.537-10.18,22.716-22.715,22.716C351.032,313.6,340.853,303.421,340.853,290.884z" clip-rule="evenodd"/>
</svg>
